<svg width="40" height="40" viewBox="0 0 40 40" fill="none" xmlns="http://www.w3.org/2000/svg">
<circle cx="20" cy="20" r="20" fill="#121212"/>
<path d="M27.9266 27.2484C26.6882 25.0209 24.7439 23.4579 22.4848 22.795C23.5831 22.2139 24.4614 21.2647 24.9781 20.1004C25.4947 18.9362 25.6196 17.6247 25.3325 16.3776C25.0454 15.1305 24.3632 14.0203 23.3958 13.2261C22.4283 12.4319 21.2321 12 20 12C18.7679 12 17.5717 12.4319 16.6042 13.2261C15.6368 14.0203 14.9546 15.1305 14.6675 16.3776C14.3804 17.6247 14.5053 18.9362 15.0219 20.1004C15.5386 21.2647 16.4169 22.2139 17.5152 22.795C15.2561 23.4571 13.3118 25.0201 12.0734 27.2484C12.0394 27.304 12.0165 27.3663 12.0062 27.4314C11.9959 27.4965 11.9984 27.5631 12.0135 27.6272C12.0286 27.6913 12.056 27.7515 12.094 27.8043C12.132 27.8571 12.1799 27.9013 12.2348 27.9343C12.2897 27.9674 12.3504 27.9885 12.4133 27.9964C12.4763 28.0044 12.5401 27.999 12.601 27.9806C12.6618 27.9622 12.7185 27.9312 12.7676 27.8895C12.8166 27.8477 12.8571 27.796 12.8865 27.7376C14.3913 25.0315 17.0499 23.4163 20 23.4163C22.9501 23.4163 25.6087 25.0315 27.1135 27.7376C27.1429 27.796 27.1834 27.8477 27.2324 27.8895C27.2815 27.9312 27.3382 27.9622 27.399 27.9806C27.4599 27.999 27.5237 28.0044 27.5867 27.9964C27.6496 27.9885 27.7103 27.9674 27.7652 27.9343C27.8201 27.9013 27.868 27.8571 27.906 27.8043C27.944 27.7515 27.9714 27.6913 27.9865 27.6272C28.0016 27.5631 28.0041 27.4965 27.9938 27.4314C27.9835 27.3663 27.9606 27.304 27.9266 27.2484ZM15.4566 17.709C15.4566 16.7737 15.7231 15.8594 16.2223 15.0818C16.7215 14.3041 17.4311 13.698 18.2613 13.34C19.0915 12.9821 20.005 12.8885 20.8864 13.0709C21.7677 13.2534 22.5773 13.7038 23.2127 14.3651C23.8481 15.0265 24.2808 15.8691 24.4561 16.7864C24.6314 17.7037 24.5414 18.6546 24.1975 19.5187C23.8537 20.3828 23.2713 21.1213 22.5242 21.6409C21.777 22.1606 20.8986 22.4379 20 22.4379C18.7955 22.4364 17.6407 21.9377 16.7889 21.0512C15.9372 20.1647 15.4581 18.9627 15.4566 17.709Z" fill="white"/>
</svg>
