<svg width="11" height="8" viewBox="0 0 11 8" fill="none" xmlns="http://www.w3.org/2000/svg">
<path d="M10.3532 0.305919C10.2039 0.110039 10.0015 0 9.79048 0C9.57944 0 9.37705 0.110039 9.2278 0.305919L5.28824 5.47795L1.34868 0.305919C1.19858 0.115591 0.997538 0.0102754 0.788862 0.0126557C0.580188 0.0150366 0.380573 0.124922 0.233012 0.318647C0.0854511 0.512371 0.00175095 0.774434 -6.19888e-05 1.04839C-0.00187492 1.32235 0.0783443 1.58628 0.223318 1.78334L4.72556 7.69408C4.87481 7.88996 5.0772 8 5.28824 8C5.49928 8 5.70167 7.88996 5.85092 7.69408L10.3532 1.78334C10.5024 1.5874 10.5862 1.32169 10.5862 1.04463C10.5862 0.767573 10.5024 0.501858 10.3532 0.305919Z" fill="black"/>
</svg>
