<svg width="50" height="50" viewBox="0 0 50 50" fill="none" xmlns="http://www.w3.org/2000/svg">
<g clip-path="url(#clip0_964_57)">
<path d="M36.96 30.72C36.96 37.824 31.296 42.48 22.32 42.48C13.344 42.48 7.584 37.728 6.96 30.096H16.128C16.224 33.36 18.384 35.424 22.128 35.424C25.248 35.424 27.312 34.224 27.312 32.064C27.312 30.576 25.824 29.472 23.808 29.088L17.52 27.888C12 26.832 8.352 23.616 8.352 18.048C8.352 11.616 14.016 7.104 21.744 7.104C29.952 7.104 35.856 11.808 36.384 19.248H27.216C26.976 16.128 24.864 14.112 21.84 14.112C19.152 14.112 17.52 15.552 17.52 17.424C17.52 18.96 19.056 19.872 20.88 20.208L27.552 21.504C33.696 22.704 36.96 25.728 36.96 30.72Z" fill="#121212"/>
</g>
<defs>
<clipPath id="clip0_964_57">
<rect width="50" height="50" fill="white"/>
</clipPath>
</defs>
</svg>
