<svg width="25" height="25" viewBox="0 0 25 25" fill="none" xmlns="http://www.w3.org/2000/svg">
<path d="M1 24L8.5 16.5M24 10C24 11.1819 23.7672 12.3522 23.3149 13.4442C22.8626 14.5361 22.1997 15.5282 21.364 16.364C20.5282 17.1997 19.5361 17.8626 18.4442 18.3149C17.3522 18.7672 16.1819 19 15 19C13.8181 19 12.6478 18.7672 11.5558 18.3149C10.4639 17.8626 9.47177 17.1997 8.63604 16.364C7.80031 15.5282 7.13738 14.5361 6.68508 13.4442C6.23279 12.3522 6 11.1819 6 10C6 7.61305 6.94821 5.32387 8.63604 3.63604C10.3239 1.94821 12.6131 1 15 1C17.3869 1 19.6761 1.94821 21.364 3.63604C23.0518 5.32387 24 7.61305 24 10Z" stroke="#A9A9A9" stroke-width="2" stroke-linecap="round" stroke-linejoin="round"/>
</svg>
