<svg width="21" height="19" viewBox="0 0 21 19" fill="none" xmlns="http://www.w3.org/2000/svg">
<path d="M5.16063 8.0005C5.16063 8.78843 5.33627 9.56865 5.67752 10.2966C6.01876 11.0246 6.51893 11.686 7.14947 12.2431C7.78001 12.8003 8.52856 13.2423 9.3524 13.5438C10.1762 13.8453 11.0592 14.0005 11.9509 14.0005C12.8427 14.0005 13.7256 13.8453 14.5495 13.5438C15.3733 13.2423 16.1219 12.8003 16.7524 12.2431C17.3829 11.686 17.8831 11.0246 18.2244 10.2966C18.5656 9.56865 18.7412 8.78843 18.7412 8.0005C18.7412 6.4092 18.0258 4.88308 16.7524 3.75786C15.479 2.63264 13.7518 2.0005 11.9509 2.0005C10.15 2.0005 8.4229 2.63264 7.14947 3.75786C5.87604 4.88308 5.16063 6.4092 5.16063 8.0005ZM6.39873 14.3205L2.34718 17.9005C2.24271 17.9959 2.11777 18.072 1.97965 18.1244C1.84154 18.1767 1.69301 18.2042 1.54275 18.2052C1.39248 18.2063 1.24347 18.1809 1.10443 18.1305C0.965391 18.0802 0.839092 18.0058 0.732908 17.9119C0.626724 17.8179 0.542782 17.7062 0.485975 17.5833C0.429171 17.4604 0.400642 17.3287 0.402052 17.1959C0.403463 17.0631 0.434786 16.9319 0.494194 16.8099C0.553602 16.688 0.639904 16.5777 0.748066 16.4855L4.79962 12.9055C3.3874 11.298 2.72159 9.2753 2.93772 7.24926C3.15384 5.22322 4.23567 3.34611 5.96295 2.00005C7.69024 0.654 9.93315 -0.0598121 12.2351 0.00392902C14.537 0.0676701 16.725 0.904173 18.3535 2.34315C19.982 3.78213 20.9287 5.7154 21.0008 7.74943C21.0729 9.78345 20.2651 11.7653 18.7418 13.2916C17.2184 14.8178 15.094 15.7737 12.8011 15.9647C10.5082 16.1557 8.21914 15.5674 6.39986 14.3195L6.39873 14.3205Z" fill="#A9A9A9"/>
</svg>
